# xmcd
#
# Track frame offsets: 
#        150
#        22973
#        43970
#        65548
#        84720
#        103443
#        125083
#        145985
#        165823
#        184550
#
# Disc length: 2729 seconds
#
# Revision: 5
# Processed by: cddbd v1.5.2PL0 Copyright (c) Steve Scherf et al.
# Submitted via: ExactAudioCopy v0.95b4
#
DISCID=8a0aa70a
DTITLE=孟庭葦 - 冬季到台北來看雨
DYEAR=1992
DGENRE=Pop
TTITLE0=冬季到台北來看雨
TTITLE1=無聲的雨
TTITLE2=把他換作你
TTITLE3=沒有情人的情人節
TTITLE4=兩小無猜
TTITLE5=啞啞與亞亞
TTITLE6=偏心
TTITLE7=心港
TTITLE8=千年的新娘
TTITLE9=等待花開
EXTD=YEAR: 1992
EXTT0=
EXTT1=
EXTT2=
EXTT3=
EXTT4=
EXTT5=
EXTT6=
EXTT7=
EXTT8=
EXTT9=
PLAYORDER=
